<?xml version="1.0" standalone="no"?><!DOCTYPE svg PUBLIC "-//W3C//DTD SVG 1.1//EN" "http://www.w3.org/Graphics/SVG/1.1/DTD/svg11.dtd"><svg class="icon" width="200px" height="200.00px" viewBox="0 0 1024 1024" version="1.1" xmlns="http://www.w3.org/2000/svg"><path fill="#2c2c2c" d="M831.544889 512c25.031111-25.031111 65.479111-25.031111 90.453333 0l50.972445 50.915556c24.974222 25.031111 24.974222 65.536 0 90.453333l-242.062223 242.062222a48.014222 48.014222 0 0 1-33.393777 14.051556l-71.566223 0.853333a48.014222 48.014222 0 0 1-48.583111-46.876444l-1.706666-74.638223a48.014222 48.014222 0 0 1 14.051555-35.043555z m-39.537778-376.035556a128 128 0 0 1 128 128v144.042667a31.971556 31.971556 0 1 1-64 0V263.964444c0-35.384889-28.672-64-64-64H231.992889c-35.328 0-64 28.615111-64 64v435.882667l364.771555-247.751111a95.971556 95.971556 0 0 1 102.115556-3.640889l88.177778 51.2a31.971556 31.971556 0 0 1-32.085334 55.352889l-88.234666-51.2a32.028444 32.028444 0 0 0-34.019556 1.194667l-390.712889 265.386666a32.028444 32.028444 0 0 1-8.362666 4.096c6.485333 28.273778 31.971556 49.493333 62.350222 49.493334h263.964444a31.971556 31.971556 0 1 1 0 63.943111h-263.964444a128 128 0 0 1-128-128V264.021333a128 128 0 0 1 128-128h560.014222z m84.764445 421.262223l-236.942223 236.999111 1.137778 51.939555 49.322667-0.568889 237.397333-237.454222-50.915555-50.915555zM348.728889 276.366222a7.964444 7.964444 0 0 1 10.581333 4.096l13.767111 31.004445c6.997333 15.701333 19.968 27.875556 36.067556 33.962666l21.674667 8.135111a7.964444 7.964444 0 0 1 0.796444 14.620445l-28.558222 14.222222a64 64 0 0 0-28.615111 28.672l-15.303111 30.606222a7.964444 7.964444 0 0 1-14.279112 0l-15.36-30.606222a64 64 0 0 0-28.558222-28.615111l-28.558222-14.222222a7.964444 7.964444 0 0 1 0.796444-14.677334l21.674667-8.135111c16.099556-6.030222 29.070222-18.261333 36.067556-33.962666l13.767111-31.004445a7.964444 7.964444 0 0 1 4.039111-4.096z" /></svg>