<?xml version="1.0" standalone="no"?><!DOCTYPE svg PUBLIC "-//W3C//DTD SVG 1.1//EN" "http://www.w3.org/Graphics/SVG/1.1/DTD/svg11.dtd"><svg t="1770175556009" class="icon" viewBox="0 0 1024 1024" version="1.1" xmlns="http://www.w3.org/2000/svg" p-id="53387" xmlns:xlink="http://www.w3.org/1999/xlink" width="200" height="200"><path d="M554.666667 324.266667H332.8q-38.826667 0-66.346667 27.477333-27.477333 27.52-27.477333 66.389333v273.066667q0 38.912 27.477333 66.389333 27.52 27.477333 66.389334 27.477334h315.733333q38.869333 0 66.389333-27.477334 27.477333-27.477333 27.477334-66.389333V554.666667h68.266666v136.533333q0 67.157333-47.488 114.645333Q715.733333 853.333333 648.576 853.333333h-315.733333q-67.157333 0-114.645334-47.488Q170.666667 758.357333 170.666667 691.2V418.133333q0-67.157333 47.488-114.645333Q265.685333 256 332.8 256H554.666667v68.266667z" fill="#241A31" p-id="53388"></path><path d="M623.189333 320.512a8.533333 8.533333 0 0 0 0 16.042667l109.226667 40.362666 40.362667 109.226667a8.533333 8.533333 0 0 0 16 0l40.405333-109.226667 109.184-40.362666a8.533333 8.533333 0 0 0 0-16.042667l-109.184-40.362667-40.405333-109.226666a8.533333 8.533333 0 0 0-16 0l-40.405334 109.226666-109.184 40.362667z" fill="#241A31" p-id="53389"></path><path d="M341.333333 469.333333a38.4 38.4 0 0 1 76.8 0v128A38.4 38.4 0 1 1 341.333333 597.333333v-128zM512 469.333333a38.4 38.4 0 0 1 76.8 0v128a38.4 38.4 0 1 1-76.8 0v-128z" fill="#241A31" p-id="53390"></path></svg>