<?xml version="1.0" standalone="no"?><!DOCTYPE svg PUBLIC "-//W3C//DTD SVG 1.1//EN" "http://www.w3.org/Graphics/SVG/1.1/DTD/svg11.dtd"><svg t="1770530352057" class="icon" viewBox="0 0 1024 1024" version="1.1" xmlns="http://www.w3.org/2000/svg" p-id="16652" xmlns:xlink="http://www.w3.org/1999/xlink" width="200" height="200"><path d="M648.647111 113.777778C793.144889 113.777778 910.222222 239.104 910.222222 393.671111c0 23.893333-18.090667 43.235556-40.391111 43.235556-22.357333 0-40.504889-19.342222-40.504889-43.235556 0-51.256889-19.000889-100.465778-52.906666-136.704a174.933333 174.933333 0 0 0-127.772445-56.661333H261.575111c-99.783111 0-180.679111 86.584889-180.679111 193.422222v236.657778c0 106.780444 80.896 193.308444 180.679111 193.308444h387.072c22.300444 0 40.391111 19.342222 40.391111 43.235556s-18.090667 43.292444-40.391111 43.292444H261.575111C117.077333 910.222222 0 784.896 0 630.328889V393.671111C0 238.990222 117.191111 113.777778 261.575111 113.777778h387.072z m176.355556 341.390222c14.449778 0 26.965333 11.150222 30.72 27.249778l25.656889 108.657778a36.238222 36.238222 0 0 0 23.665777 27.079111l95.744 29.468444c13.767111 4.380444 23.267556 18.773333 23.210667 35.043556 0 16.327111-9.443556 30.663111-23.210667 35.043555l-95.744 29.297778a36.295111 36.295111 0 0 0-23.665777 27.136l-25.6 108.885333c-3.754667 15.928889-16.384 27.136-30.833778 27.192889-14.449778-0.056889-27.079111-11.207111-30.776889-27.192889l-25.6-108.885333a36.238222 36.238222 0 0 0-23.779556-27.079111l-95.744-29.297778c-13.767111-4.323556-23.324444-18.773333-23.267555-35.100444 0-16.497778 9.557333-30.833778 23.324444-35.100445l95.744-29.297778a36.238222 36.238222 0 0 0 23.665778-27.079111l25.656889-108.771555c3.640889-16.042667 16.327111-27.249778 30.776889-27.306667v0.056889zM312.888889 398.222222a85.333333 85.333333 0 1 1 0 170.666667 85.333333 85.333333 0 0 1 0-170.666667z m284.444444 0a85.333333 85.333333 0 1 1 0 170.666667 85.333333 85.333333 0 0 1 0-170.666667z" p-id="16653"></path></svg>