<?xml version="1.0" standalone="no"?><!DOCTYPE svg PUBLIC "-//W3C//DTD SVG 1.1//EN" "http://www.w3.org/Graphics/SVG/1.1/DTD/svg11.dtd"><svg t="1770175520750" class="icon" viewBox="0 0 1024 1024" version="1.1" xmlns="http://www.w3.org/2000/svg" p-id="51375" xmlns:xlink="http://www.w3.org/1999/xlink" width="200" height="200"><path d="M372.5312 475.648l9.344-0.5632 18.176 0.384 11.2128 1.152 12.1088 2.048 10.8032 2.5088 13.3888 4.0704 8.8832 3.2768 7.0656 2.9696 1.28 0.5632a202.8288 202.8288 0 0 1 50.0992 32.2048 187.4688 187.4688 0 0 1 43.6992 55.5008l4.736 9.984 5.376 13.952 2.4064 7.7312 1.9712 7.552 1.28 5.8368 1.8944 11.5456 0.768 6.9376 0.7168 13.312-0.0768 7.808-0.4096 7.9104-0.1792 2.4832c-2.3808 27.136-10.8544 54.784-25.5744 82.1248-5.0432 9.3952-16 24.1408-28.5952 38.0928-16.384 18.176-34.688 34.3552-54.016 46.5152-16.3072 10.3168-34.688 18.7136-55.6032 25.9584a565.248 565.248 0 0 1-54.1184 15.3088c-87.3728 20.9408-167.936 16.9984-240.768-12.288-26.0352-10.496-30.6432-28.0576-7.0912-39.2448l4.0448-1.7664c80.768-31.7696 97.152-107.7248 98.3808-117.7088l0.7168-5.6064c5.6064-44.1088 11.1616-74.496 20.8128-105.2416 14.7712-47.1808 36.5568-82.4832 69.4272-103.04a152.32 152.32 0 0 1 67.84-22.272z m515.4816 324.352a40.0128 40.0128 0 0 1 0 80H584.0128a40.0128 40.0128 0 1 1 0-80h304z m-484.4032-243.6352l-5.1456-0.7168-13.568-0.6144-1.1776 0.0256a73.8304 73.8304 0 0 0-36.608 10.7008c-13.312 8.32-25.2928 26.496-35.5072 59.136-7.0144 22.3744-11.6992 45.4912-16.64 82.4832l-1.8176 14.2592c-3.712 29.952-15.1296 62.3104-34.9952 92.16a1.3312 1.3312 0 0 0 1.1264 2.0992l8.0384-0.2048a376.6784 376.6784 0 0 0 60.544-7.8336l12.5952-2.816 14.0032-3.4816c12.9536-3.328 23.0912-6.3488 32.6912-9.6512 15.9488-5.5296 28.6464-11.4176 39.1168-18.0224 12.0576-7.6032 24.832-18.688 37.248-32.4352 8.448-9.3696 15.872-19.3024 17.536-22.3488 8.3712-15.616 13.5168-30.72 15.616-45.0304l0.9472-9.4208 0.128-3.7888-0.256-9.1136-0.896-7.424-1.408-7.1168-2.304-7.9616-1.5872-4.4032-1.792-4.2496a106.24 106.24 0 0 0-27.2384-36.096 123.2128 123.2128 0 0 0-23.7312-16.2816l-9.6-4.5056-6.4512-2.4832-9.9072-2.9952-8.96-1.8688zM746.2656 169.7024a99.456 99.456 0 0 1 133.7344 6.2976 99.072 99.072 0 0 1 6.016 133.504l-236.5952 283.6992a32 32 0 0 1-54.6816-9.8816l-0.4352-1.1776-4.8128-11.0336-2.048-4.1984-2.1248-4.1728a193.3824 193.3824 0 0 0-49.792-63.4368c-12.0832-10.24-26.9568-20.3264-42.5728-28.928a207.104 207.104 0 0 0-22.8608-9.7536 32.0256 32.0256 0 0 1-9.344-54.7328L746.24 169.728z m77.184 62.8736a19.456 19.456 0 0 0-26.1632-1.2288l-225.4848 186.4704a5.376 5.376 0 0 0 0.256 8.4736l5.376 4.0192 9.8816 7.9872c14.7712 12.544 28.1088 26.368 39.8336 41.216l6.144 8.0896 191.3088-229.3504a19.072 19.072 0 0 0 0.9216-23.2192l-2.0736-2.4576zM223.0272 88.6528a13.568 13.568 0 0 1 8.7552 8.7552l18.944 58.9568a84.736 84.736 0 0 0 54.784 54.784l58.9568 18.944a13.568 13.568 0 0 1 0 25.8304l-58.9568 18.944a84.736 84.736 0 0 0-54.784 54.784l-18.944 58.9312a13.568 13.568 0 0 1-25.8304 0l-18.944-58.9568a84.736 84.736 0 0 0-54.784-54.784l-58.9312-18.944a13.568 13.568 0 0 1 0-25.8048l58.9568-18.944a84.736 84.736 0 0 0 54.784-54.784l18.944-58.9568a13.568 13.568 0 0 1 17.0496-8.7552z" p-id="51376"></path></svg>