<?xml version="1.0" standalone="no"?><!DOCTYPE svg PUBLIC "-//W3C//DTD SVG 1.1//EN" "http://www.w3.org/Graphics/SVG/1.1/DTD/svg11.dtd"><svg class="icon" width="200px" height="200.00px" viewBox="0 0 1024 1024" version="1.1" xmlns="http://www.w3.org/2000/svg"><path fill="#2c2c2c" d="M88.8 313c13.7 0 24.8-11.1 24.8-24.8V114h174.8c13.7 0 24.8-11.1 24.8-24.8v-0.1c0-13.7-11.1-24.8-24.8-24.8l-199 0.1c-13.7 0-24.8 11.1-24.8 24.8l-0.5 199c-0.1 13.7 11 24.8 24.7 24.8zM288.4 910H114.3V736c0-13.7-11.1-24.9-24.9-24.9S64.5 722.2 64.5 736v198.9c0 13.7 11.1 24.9 24.9 24.9h199c13.7 0 24.9-11.1 24.9-24.9 0-13.8-11.1-24.9-24.9-24.9zM935.1 711c-13.7 0-24.9 11.1-24.9 24.9V910H736.1c-13.7 0-24.9 11.1-24.9 24.9 0 13.7 11.1 24.9 24.9 24.9h199c13.7 0 24.9-11.1 24.9-24.9V735.8c0-13.7-11.1-24.8-24.9-24.8zM935.1 64.4l-199-0.1c-13.7 0-24.9 11.1-24.9 24.9 0 13.7 11.1 24.9 24.9 24.9h174.1v174.1c0 13.7 11.1 24.9 24.9 24.9 13.7 0 24.9-11.1 24.9-24.9v-199c0-13.7-11.1-24.8-24.9-24.8zM748.9 783.8c10.5 10.5 26.9 11.1 36.6 1.4 9.7-9.7 9.1-26.1-1.4-36.6L658.7 623.2c32.9-40.6 52.6-92.2 52.6-148.5 0-130.5-105.8-236.3-236.3-236.3S238.7 344.2 238.7 474.7 344.5 711 475 711c56.3 0 107.9-19.8 148.5-52.6l125.4 125.4zM475 661.2c-102.9 0-186.5-83.7-186.5-186.5S372.1 288.2 475 288.2s186.5 83.7 186.5 186.5S577.8 661.2 475 661.2z" /></svg>