<?xml version="1.0" standalone="no"?><!DOCTYPE svg PUBLIC "-//W3C//DTD SVG 1.1//EN" "http://www.w3.org/Graphics/SVG/1.1/DTD/svg11.dtd"><svg t="1771641944725" class="icon" viewBox="0 0 1024 1024" version="1.1" xmlns="http://www.w3.org/2000/svg" p-id="30482" xmlns:xlink="http://www.w3.org/1999/xlink" width="200" height="200"><path d="M788.992 99.413333l135.637333 135.68a96 96 0 0 1 0 135.722667l-110.250666 110.250667A96 96 0 0 1 896 576v224A96 96 0 0 1 800 896H224A96 96 0 0 1 128 800V224A96 96 0 0 1 224 128h224a96 96 0 0 1 94.933333 81.706667L653.226667 99.413333a96 96 0 0 1 135.765333 0zM192 800c0 17.664 14.336 32 32 32h255.957333l0.042667-288H192v256z m351.957333 32h256.042667a32 32 0 0 0 32-32V576a32 32 0 0 0-32-32h-256.042667v288zM448 192H224a32 32 0 0 0-32 32v256h288v-256a32 32 0 0 0-32-32z m96 205.226667v82.773333h82.773333l-82.773333-82.773333z m154.453333-252.544L562.901333 280.32a32 32 0 0 0 0 45.226667l135.637334 135.68a32 32 0 0 0 45.226666 0l135.68-135.68a32 32 0 0 0 0-45.226667L743.68 144.64a32 32 0 0 0-45.226667 0z" fill="#212121" p-id="30483"></path></svg>