<?xml version="1.0" standalone="no"?><!DOCTYPE svg PUBLIC "-//W3C//DTD SVG 1.1//EN" "http://www.w3.org/Graphics/SVG/1.1/DTD/svg11.dtd"><svg t="1771663895372" class="icon" viewBox="0 0 1024 1024" version="1.1" xmlns="http://www.w3.org/2000/svg" p-id="6583" xmlns:xlink="http://www.w3.org/1999/xlink" width="200" height="200"><path d="M512.950857 131.291429a28.233143 28.233143 0 1 1 0 56.539428 28.233143 28.233143 0 0 1 0-56.539428z m-337.188571 255.853714a28.233143 28.233143 0 1 1 0 56.539428 28.233143 28.233143 0 0 1 0-56.539428z m674.377143 1.316571a28.233143 28.233143 0 1 1 0 56.539429 28.233143 28.233143 0 0 1 0-56.539429z m-620.763429 66.998857a25.819429 25.819429 0 0 0 13.165714-34.011428l-12.580571-28.379429h49.298286v222.354286h-99.474286a347.940571 347.940571 0 0 1-11.264-132.900571l60.854857-27.062858z m206.262857 5.485715v-65.536h117.467429c6.070857 0 42.788571 7.021714 42.788571 34.523428 0 22.820571-28.16 31.012571-51.346286 31.012572H435.638857z m-132.022857 324.461714a28.233143 28.233143 0 1 1 0 56.539429 28.233143 28.233143 0 0 1 0-56.539429z m418.742857 1.316571a28.233143 28.233143 0 1 1 0 56.539429 28.233143 28.233143 0 0 1 0-56.539429z m-19.529143-35.84a25.746286 25.746286 0 0 0-30.573714 19.894858l-14.189714 66.194285a347.940571 347.940571 0 0 1-290.230857-1.462857l-14.116572-66.121143a25.746286 25.746286 0 0 0-30.646857-19.821714l-58.441143 12.507429a347.940571 347.940571 0 0 1-30.208-35.620572h284.379429c3.218286 0 5.339429-0.585143 5.339428-3.510857V622.445714c0-2.925714-2.121143-3.510857-5.339428-3.510857H435.638857v-63.780571h89.965714c8.192 0 43.885714 2.340571 55.296 47.981714 3.584 14.043429 11.410286 59.684571 16.822858 74.313143 5.339429 16.384 27.062857 49.078857 50.249142 49.078857h146.870858c-9.874286 13.165714-20.626286 25.6-32.182858 37.302857l-59.830857-12.8z m157.915429-265.508571c1.974857 20.041143 2.194286 40.228571 0.731428 60.342857h-35.693714c-3.657143 0-5.046857 2.340571-5.046857 5.851429v16.384c0 38.619429-21.723429 47.030857-40.813714 49.152-18.139429 2.048-38.253714-7.606857-40.740572-18.724572-10.752-60.269714-28.598857-73.142857-56.758857-95.305143 34.962286-22.235429 71.387429-55.003429 71.387429-98.889142 0-47.396571-32.475429-77.238857-54.637715-91.867429a154.916571 154.916571 0 0 0-74.678857-24.502857H255.268571A347.940571 347.940571 0 0 1 449.828571 177.883429l43.52 45.714285a25.746286 25.746286 0 0 0 36.425143 0.731429l48.713143-46.518857a347.940571 347.940571 0 0 1 238.226286 169.691428l-33.353143 75.337143a25.819429 25.819429 0 0 0 13.165714 34.011429l64.146286 28.525714z m83.090286 1.170286l-1.097143-11.629715 34.377143-32.036571c6.948571-6.509714 4.315429-19.602286-4.608-22.966857l-43.885715-16.384-3.437714-11.337143 27.355429-38.034286c5.632-7.68 0.438857-20.041143-8.923429-21.577143l-46.299429-7.533714-5.558857-10.386286 19.456-42.715428c3.949714-8.704-3.437714-19.748571-13.019428-19.456l-46.957715 1.609143-7.387428-8.996572 10.752-45.714285c2.194286-9.289143-7.241143-18.724571-16.530286-16.530286l-45.714286 10.752-9.069714-7.387429 1.682286-47.030857c0.365714-9.508571-10.752-16.896-19.456-12.946286l-42.715429 19.456-10.386285-5.632-7.533715-46.226285c-1.462857-9.435429-13.897143-14.555429-21.577143-8.996572l-38.034285 27.355429-11.337143-3.364572-16.384-43.885714C614.180571 55.881143 601.088 53.394286 594.578286 60.269714l-32.036572 34.377143-11.629714-1.170286-24.722286-39.936c-5.046857-8.045714-18.432-8.045714-23.405714 0l-24.722286 39.936-11.702857 1.170286-31.963428-34.377143C427.885714 53.394286 414.72 55.954286 411.428571 64.877714l-16.384 43.885715-11.337142 3.437714-38.034286-27.355429c-7.753143-5.558857-20.114286-0.438857-21.650286 8.996572l-7.533714 46.226285-10.386286 5.632-42.642286-19.456c-8.777143-4.022857-19.821714 3.437714-19.456 12.946286l1.609143 47.030857-8.996571 7.387429-45.787429-10.825143c-9.289143-2.194286-18.724571 7.314286-16.530285 16.603429l10.752 45.714285-7.314286 8.996572-47.030857-1.609143c-9.508571-0.292571-16.969143 10.752-13.019429 19.456l19.456 42.715428-5.558857 10.386286-46.299429 7.533714c-9.362286 1.462857-14.482286 13.897143-8.923428 21.577143l27.355428 38.034286-3.437714 11.337143-43.885714 16.384c-8.923429 3.364571-11.483429 16.457143-4.534857 22.966857l34.377143 32.036571-1.170286 11.702858-39.936 24.649142c-8.118857 5.046857-8.118857 18.432 0 23.405715l39.936 24.722285 1.097143 11.702858-34.377143 31.963428c-6.875429 6.509714-4.315429 19.602286 4.608 22.966857l43.885714 16.384 3.437714 11.337143-27.355428 38.034286c-5.558857 7.753143-0.438857 20.114286 8.923428 21.650286l46.299429 7.460571 5.558857 10.459429-19.456 42.642285c-3.949714 8.704 3.510857 19.821714 13.019429 19.456l46.957714-1.609143 7.387429 8.996572-10.752 45.787428c-2.194286 9.216 7.314286 18.651429 16.530285 16.457143l45.787429-10.752 8.996571 7.387429-1.609143 47.030857c-0.365714 9.508571 10.752 16.896 19.456 12.946286l42.642286-19.456 10.386286 5.632 7.533714 46.226285c1.536 9.435429 13.897143 14.482286 21.650286 8.996572l38.034286-27.428572 11.337142 3.437715 16.384 43.885714c3.364571 8.923429 16.457143 11.556571 22.966858 4.534857l32.036571-34.377143 11.629714 1.243429 24.722286 39.936c4.973714 8.045714 18.358857 8.045714 23.405714 0l24.722286-39.936 11.629714-1.170286 32.036572 34.377143c6.509714 6.948571 19.602286 4.315429 22.893714-4.608l16.457143-43.885714 11.337143-3.437715 38.034285 27.428572c7.68 5.485714 20.041143 0.438857 21.577143-8.996572l7.533715-46.226285 10.386285-5.632 42.715429 19.456c8.704 3.949714 19.748571-3.437714 19.456-12.946286l-1.682286-47.030857 9.069714-7.314286 45.714286 10.678857c9.289143 2.194286 18.724571-7.241143 16.530286-16.457143l-10.752-45.787428 7.387428-8.996572 46.957715 1.609143c9.508571 0.365714 16.969143-10.752 13.019428-19.456L891.757714 731.428571l5.558857-10.459428 46.299429-7.460572c9.435429-1.536 14.482286-13.897143 8.923429-21.650285l-27.355429-38.034286 3.437714-11.337143 43.885715-16.384c8.923429-3.364571 11.556571-16.457143 4.534857-22.966857l-34.377143-32.036571 1.170286-11.629715 40.009142-24.722285c8.045714-4.973714 8.045714-18.358857 0-23.405715l-40.009142-24.722285z" fill="#FA6414" p-id="6584"></path></svg>