<?xml version="1.0" standalone="no"?><!DOCTYPE svg PUBLIC "-//W3C//DTD SVG 1.1//EN" "http://www.w3.org/Graphics/SVG/1.1/DTD/svg11.dtd"><svg t="1770792499195" class="icon" viewBox="0 0 2166 1024" version="1.1" xmlns="http://www.w3.org/2000/svg" p-id="21015" xmlns:xlink="http://www.w3.org/1999/xlink" width="423.046875" height="200"><path d="M836.484 505.86c-27.343 0-49.576 8.093-66.62 24.274-17.046 16.194-25.692 37.422-25.692 63.432 0 13.479 2.147 25.77 6.378 37.031 4.231 11.284 10.816 21.738 19.668 31.184 8.852 9.455 26.57 22.298 52.978 38.626 32.403 19.782 53.608 35.836 63.786 48.371 10.184 12.525 15.238 25.651 15.238 39.335 0 18.322-6.032 32.948-18.428 43.942-12.417 10.999-29.022 16.478-49.611 16.478-21.716 0-40.632-7.655-56.876-22.857-16.244-15.223-24.444-35.36-24.629-60.597h-10.099v91.604h10.1c3.082-8.674 7.35-13.111 12.934-13.111 2.686 0 8.98 1.852 18.781 5.315 23.85 8.486 43.432 12.58 58.825 12.58 26.528 0 49.172-9.29 68.039-28.172 18.838-18.873 28.35-41.638 28.35-68.216 0-20.608-6.28-38.944-18.605-54.927-12.325-16.001-36.294-34.614-72.114-55.99-30.823-18.518-50.83-33.6-60.065-45.359-9.249-11.74-13.998-24.728-13.998-38.98 0-15.415 5.663-27.797 16.833-37.031 11.17-9.242 25.805-13.82 44.119-13.82 20.61 0 37.79 6.116 51.383 18.426 13.58 12.332 21.432 29.421 23.743 51.384H921v-79.379h-9.39c-1.149 4.047-2.212 6.634-3.19 7.796-0.95 1.156-2.778 1.772-5.493 1.772-3.267 0-9.093-1.375-17.364-4.075-17.718-5.968-34.054-9.036-49.08-9.036z m330.094 0c-33.318 0-63.567 7.852-90.896 23.565-27.37 15.684-49.037 37.464-65.026 65.204-15.982 27.737-23.92 57.197-23.92 88.592 0 42.178 13.806 79.754 41.638 112.688 27.847 32.915 61.214 53.424 99.932 61.306 8.852 4.612 21.517 16.52 38.094 35.791 18.683 21.749 34.488 37.435 47.486 46.777 12.984 9.346 27.003 16.196 41.815 20.73 14.827 4.515 30.858 6.733 48.194 6.733 20.993 0 39.788-3.649 56.344-11.163l-3.72-9.213c-9.61 3.466-19.86 5.138-30.653 5.138-14.65 0-29.455-4.83-44.296-14.529-14.82-9.722-33.353-28.272-55.459-55.636-10.39-13.111-17.562-21.384-21.616-24.628 42.361-8.272 77.195-28.803 104.361-61.66 27.159-32.843 40.752-70.326 40.752-112.334 0-49.88-17.746-91.8-52.977-125.978-35.26-34.181-78.62-51.383-130.053-51.383z m206.064 0l0.532 10.808c22.183 0 34.607 6.534 37.385 19.667 1.035 4.7 1.51 13.375 1.595 25.869l-0.177 239.02c-0.184 17.852-2.728 29.25-7.619 34.197-4.897 4.912-13.175 7.988-25.16 9.214l-0.531 10.808h221.125l5.67-54.218h-10.1c-2.884 14.77-9.496 25.35-20.021 31.361-10.553 6.055-29.214 9.037-56.167 9.037h-20.908c-24.253 0-38.286-8.768-41.993-26.4-0.765-3.49-1.027-7.23-1.063-11.34l0.886-241.679c-0.005-17.823 2.247-29.767 6.91-35.614 4.713-5.826 13.211-9.086 25.515-9.922l-0.531-10.808h-115.347z m-202.52 13.111c37.576 0 68.258 14.8 91.958 44.65 23.693 29.862 35.436 70.788 35.436 122.612 0 49.107-11.913 88.428-35.79 118.004-23.878 29.567-55.658 44.296-95.148 44.296-37.939 0-68.705-15.188-92.313-45.714-23.587-30.525-35.26-70.156-35.26-118.89 0-50.079 11.815-90.167 35.614-120.13 23.785-29.932 55.636-44.828 95.502-44.828z m508.517 51.383c-5.394 0-9.504 1.822-12.58 5.493-3.147 3.657-4.111 8.087-3.013 13.466 1.064 5.219 4.005 9.792 8.682 13.643 4.65 3.848 9.668 5.847 15.061 5.847 5.216 0 9.192-1.999 12.049-5.847 2.856-3.851 3.728-8.424 2.657-13.643-1.098-5.38-3.94-9.809-8.327-13.466-4.437-3.671-9.313-5.493-14.53-5.493z m145.822 36.678c-9.164 35.253-29.03 54.331-59.534 57.407l0.355 10.1h35.613l-0.708 119.421c0.056 20.418 0.68 34.011 2.126 40.93 3.508 16.564 14.323 24.983 32.425 24.983 26.187 0 53.658-15.953 82.39-47.84l-8.682-7.442c-20.745 21-39.087 31.539-55.104 31.539-9.845 0-15.947-5.661-18.25-16.832-0.63-2.713-0.886-5.884-0.886-9.568l0.354-135.191h54.396l-0.532-16.124h-53.686v-51.383h-10.277z m210.317 45.004c-30.426 0-55.175 14.77-74.417 44.119-19.143 29.398-25.068 61.97-17.541 97.805 4.43 20.99 13.253 37.26 26.754 48.726 13.48 11.461 30.582 17.187 51.03 17.187 19.036 0 45.543-4.82 56.698-14.53 11.184-9.703 21.489-25.422 31.007-46.953l-7.619-7.973c-15.18 27.93-45.82 41.992-68.924 41.992-31.766 0-51.22-17.428-58.47-52.092-0.943-4.425-1.645-9.178-2.127-14.175 37.79-5.983 66.43-16.578 85.757-31.893 19.313-15.323 38.704-31.566 35.082-48.725-2.154-10.197-7.449-18.214-15.592-24.274-8.25-6.058-29.668-9.214-41.638-9.214z m-332.574 1.24l-65.558 15.061v11.694l22.68-2.835c10.985 0 17.449 4.975 19.49 14.884 0.687 3.316 1.12 7.973 1.24 13.82l-0.709 107.196c-0.184 14.834-1.828 23.457-5.138 26.046-3.338 2.594-12.14 3.898-26.4 3.898l-0.355 10.1h104.007l-0.177-10.1c-14.45 0-23.82-1.14-27.995-3.366-4.103-2.212-6.931-6.238-8.15-12.403-0.943-4.443-1.354-12.099-1.418-22.68l0.355-151.315h-11.872z m315.919 19.845c6.329 0 12.445 2.444 18.604 7.265 6.074 4.803 9.773 10.144 10.985 15.946 5.932 28.5-19.334 48.202-76.189 59.18-1.623-20.781 1.978-39.646 11.163-56.7 9.114-17.037 20.986-25.691 35.437-25.691zM689.636 96.593H125.449c-37.813 0-68.75 30.944-68.75 68.755V787.54c0 37.81 30.937 68.748 68.75 68.748h371.588c-4.217-184.89 58.92-543.705 192.599-759.695z" fill="#1195DB" p-id="21016"></path><path d="M669.14 116.65H125.448c-26.85 0-48.698 21.844-48.698 48.698v576.797c123.134-47.258 307.944-88.035 435.728-86.183 25.678-134.268 101.147-397.405 156.66-539.311z" fill="#1195DB" p-id="21017"></path><path d="M821.234 76.231c-38.64-34.458-85.424-20.617-131.598 20.362-6.854 6.088-13.693 12.843-20.497 20.058-78.988 83.793-152.307 239.006-175.086 357.542 8.874 17.995 15.805 40.958 20.37 58.5 1.169 4.5 2.225 8.724 3.068 12.317 2.006 8.504 3.083 14.019 3.083 14.019s-0.708-2.68-3.614-11.106c-0.553-1.616-1.17-3.38-1.9-5.457-0.311-0.858-0.744-1.9-1.219-3.013-5.152-11.977-19.405-37.258-25.677-48.264-5.365 15.826-10.107 30.631-14.076 44.026 18.109 33.132 29.144 89.912 29.144 89.912s-0.957-3.68-5.507-16.523c-4.04-11.359-24.161-46.613-28.927-54.855-8.154 30.099-11.393 50.42-8.472 55.367 5.672 9.588 11.074 26.13 15.818 44.423 10.716 41.212 18.165 91.383 18.165 91.383s0.24 3.325 0.645 8.441c-1.489 34.61-0.596 70.492 2.083 102.925 3.551 42.933 10.234 79.815 18.753 99.554l5.784-3.153c-12.51-38.889-17.591-89.854-15.366-148.63 3.367-89.84 24.04-198.182 62.241-311.106C632.987 322.488 722.53 185.717 804.48 120.4c-74.693 67.457-175.787 285.811-206.05 366.67-33.885 90.549-57.897 175.52-72.37 256.93 24.97-76.321 105.702-109.128 105.702-109.128s39.597-48.834 85.87-118.601c-27.719 6.322-73.234 17.144-88.479 23.551-22.488 9.433-28.547 12.65-28.547 12.65s72.843-44.359 135.34-64.444C821.893 352.659 915.53 160.35 821.234 76.23" fill="#1195DB" p-id="21018"></path></svg>