<?xml version="1.0" standalone="no"?><!DOCTYPE svg PUBLIC "-//W3C//DTD SVG 1.1//EN" "http://www.w3.org/Graphics/SVG/1.1/DTD/svg11.dtd"><svg class="icon" width="200px" height="200.00px" viewBox="0 0 1024 1024" version="1.1" xmlns="http://www.w3.org/2000/svg"><path fill="#2c2c2c" d="M202.666667 309.333333m-32 0a32 32 0 1 0 64 0 32 32 0 1 0-64 0Z"  /><path fill="#2c2c2c" d="M330.666667 309.333333m-32 0a32 32 0 1 0 64 0 32 32 0 1 0-64 0Z"  /><path fill="#2c2c2c" d="M458.666667 309.333333m-32 0a32 32 0 1 0 64 0 32 32 0 1 0-64 0Z"  /><path fill="#2c2c2c" d="M853.333333 160h-682.666666a117.333333 117.333333 0 0 0-117.333334 117.333333v512a117.333333 117.333333 0 0 0 117.333334 117.333334h682.666666a117.333333 117.333333 0 0 0 117.333334-117.333334v-512a117.333333 117.333333 0 0 0-117.333334-117.333333z m-682.666666 64h682.666666a53.333333 53.333333 0 0 1 53.333334 53.333333v512a53.333333 53.333333 0 0 1-53.333334 53.333334h-682.666666a53.333333 53.333333 0 0 1-53.333334-53.333334v-512a53.333333 53.333333 0 0 1 53.333334-53.333333z"  /><path fill="#2c2c2c" d="M928 405.333333v64h-832v-64z"  /></svg>