<?xml version="1.0" standalone="no"?><!DOCTYPE svg PUBLIC "-//W3C//DTD SVG 1.1//EN" "http://www.w3.org/Graphics/SVG/1.1/DTD/svg11.dtd"><svg t="1771637005189" class="icon" viewBox="0 0 1024 1024" version="1.1" xmlns="http://www.w3.org/2000/svg" p-id="22210" xmlns:xlink="http://www.w3.org/1999/xlink" width="200" height="200"><path d="M184.021333 298.666667s3.328 13.482667 0 26.666666c-3.370667 13.184-62.336 277.845333-85.333333 373.333334C95.274667 715.178667 85.333333 725.333333 85.333333 725.333333h170.666667c38.186667 0 76.16-16.981333 107.989333-45.354666C361.514667 688.981333 352 725.333333 352 725.333333h82.688l22.613333-84.010666h112.042667L589.354667 725.333333h111.957333c3.370667 0-125.312-394.154667-125.312-404.010666-3.328-9.813333 0-22.656 0-22.656h-121.344s5.973333 12.8 2.688 22.656c0 1.024-8.661333 33.365333-10.666667 41.344C409.813333 295.168 328.490667 298.666667 338.688 298.666667z m402.645334 0s9.984 6.186667 13.354666 22.656c3.328 9.813333 117.333333 370.858667 117.333334 377.344v24.021333h112s-12.032-21.504-12.032-34.688c0-13.184 9.344-40.021333 9.344-40.021333s105.344-320.128 105.344-326.656C932.010667 317.994667 938.666667 298.666667 938.666667 298.666667h-89.344s10.666667 12.8 10.666666 22.656c-3.328 9.813333-80 266.666667-80 266.666666L710.656 298.666667zM282.666667 361.344h33.322666c9.813333 0 56.021333 2.986667 56.021334 91.989333 0 89.002667-66.517333 210.688-116.010667 210.688H206.677333z m230.656 82.645333l42.666666 134.656H468.053333z" fill="#797F7E" p-id="22211"></path></svg>