<?xml version="1.0" standalone="no"?><!DOCTYPE svg PUBLIC "-//W3C//DTD SVG 1.1//EN" "http://www.w3.org/Graphics/SVG/1.1/DTD/svg11.dtd"><svg t="1770288396326" class="icon" viewBox="0 0 1024 1024" version="1.1" xmlns="http://www.w3.org/2000/svg" p-id="13611" xmlns:xlink="http://www.w3.org/1999/xlink" width="200" height="200"><path d="M893.495735 1023.99964H130.503265a73.386949 73.386949 0 0 1-73.613949-73.130949V73.102299A73.386949 73.386949 0 0 1 130.503265 0.00035h495.273656L967.109684 339.115115v611.781576A73.386949 73.386949 0 0 1 893.495735 1023.99964z" fill="#7AA7FB" p-id="13612"></path><path d="M307.882142 341.333113a80.042945 80.042945 0 0 0-80.326945 79.786945v372.365742a80.042945 80.042945 0 0 0 80.269945 79.785945h374.84074a80.042945 80.042945 0 0 0 80.298944-79.785945V421.148058a80.042945 80.042945 0 0 0-80.298944-79.814945H307.882142z m401.549721 281.542805V421.120058a26.679982 26.679982 0 0 0-26.765981-26.595982H307.882142a26.679982 26.679982 0 0 0-26.793982 26.595982v372.365742c0 11.405992 7.224995 21.133985 17.379988 24.916983l284.955802-283.106804a26.907981 26.907981 0 0 1 37.858974 0l88.177939 87.608939zM372.508097 820.080781L602.339937 591.72994l107.092926 106.381926v95.373934a26.679982 26.679982 0 0 1-26.765981 26.594981H372.508097z m-37.859974-305.861788a66.701954 66.701954 0 0 1 66.929954-66.503953c36.977974 0 66.929954 29.781979 66.929953 66.503953a66.701954 66.701954 0 0 1-66.929953 66.502954 66.701954 66.701954 0 0 1-66.929954-66.502954z m66.929954-13.31199a13.368991 13.368991 0 0 0-13.368991 13.31199c0 7.337995 5.973996 13.282991 13.369991 13.282991s13.367991-5.944996 13.36799-13.282991a13.368991 13.368991 0 0 0-13.36899-13.31199z" fill="#FFFFFF" opacity=".12" p-id="13613"></path><path d="M364.942102 722.488849q-2.275998 12.799991-8.675994 17.776988-6.399996 4.977997-15.785989 4.977996-6.542995 0-12.515991-4.266997t-9.101994-14.78999l-35.270976-124.871913-35.839975 127.459912q-4.835997 16.753988-21.332985 16.753988-4.266997 0-8.249994-1.137999-3.981997-1.137999-7.394995-4.266997-3.412998-3.128998-6.114996-8.703994-2.702998-5.546996-4.124997-14.36399l-24.745983-158.66289q-1.137999-6.542995 2.559998-11.832992 3.696997-5.261996 13.652991-5.261996 6.257996 0 10.949992 2.274998t6.115996 12.515991l17.351988 116.905919q1.421999 9.670993 3.127998 9.386994 1.706999-0.285 3.982997-9.386994l30.149979-116.336919q1.991999-7.395995 7.395995-11.377992t11.946992-3.981997q7.395995 0 12.088991 3.269997 4.692997 3.271998 7.537995 13.226991 8.248994 29.29798 16.354989 57.45796t16.355988 57.457961q2.559998 8.817994 3.839998 9.669993 1.279999 0.853999 2.701998-9.669993l16.781988-115.199921q1.421999-9.670993 5.546996-12.941991 4.123997-3.270998 11.803992-3.270997 9.670993 0 13.226991 4.692996t2.417998 10.950993l-26.737981 165.546885z m81.634943-11.946992h68.835953q10.808993 0 15.359989 3.412998 4.550997 3.413998 4.550997 12.515991t-4.550997 12.514992q-4.550997 3.413998-15.359989 3.413997h-87.60894q-8.532994 0-13.36899-3.270997-4.834997-3.271998-4.834997-12.373992V559.785962q0-8.816994 4.549997-12.229992t13.71099-3.413997h88.091939q8.249994 0 12.401992 3.555997 4.124997 3.554998 4.124997 12.372992t-4.551997 12.372991Q523.405992 575.999951 515.184998 575.999951h-68.607953v48.069966h65.990955q9.102994 0 13.084991 3.839998t3.981997 12.373991q0 8.533994-3.981997 12.089992t-13.084991 3.554997h-65.989955v54.612962z m206.790857-74.523948q7.964994 1.421999 15.786989 4.834997 7.821995 3.412998 13.93799 9.528993 6.114996 6.115996 9.954993 15.359989t3.839998 22.043985q0 25.884982-15.643989 40.249972T635.447914 742.399835h-59.163959q-7.679995 0-11.519992-3.982997t-3.839997-8.816994V556.941964q0-4.835997 3.981997-8.817994 3.981997-3.981997 11.377992-3.981997h51.768965q17.634988 0 29.581979 4.123997 11.946992 4.124997 19.199987 10.809992 7.252995 6.683995 10.239993 15.50199 2.986998 8.816994 2.986998 18.203987 0 9.955993-2.844998 17.350988t-7.821995 12.657991q-4.977997 5.261996-11.661992 8.532994-6.684995 3.270998-14.36499 4.693997z m-55.465962-15.644989h29.29698q14.50699 0 20.337986-6.399996 5.830996-6.399996 5.830996-16.070989 0-4.266997-1.421999-8.106994-1.421999-3.839997-4.550997-6.968995-3.128998-3.127998-8.106994-4.976997-4.976997-1.849999-12.088992-1.849998h-29.29698v44.373969z m0 90.168937h27.760981q16.127989 0 25.315983-6.541995 9.215994-6.542995 9.215993-21.049986 0-8.816994-2.559998-14.36399t-7.537995-8.816993q-4.977997-3.270998-12.229991-4.550997t-16.639989-1.279999h-23.324984v56.60396zM718.789857 562.91496q0-5.972996 0.994999-9.669994 0.995999-3.698997 3.839997-5.689996t8.106995-2.701998q5.261996-0.71 13.79499-0.709999h40.106972q18.772987 0 31.714978 3.127998 12.942991 3.128998 21.191986 10.523992t11.945991 19.484987q3.697997 12.088992 3.697998 29.723979 0 17.635988-3.981997 30.150979-3.981997 12.515991-12.230992 20.479986-8.249994 7.964994-21.190985 11.662992-12.942991 3.696997-31.146979 3.696997h-29.866979v57.457961q0 5.688996-4.265997 10.239992-4.266997 4.550997-14.22299 4.550997t-14.22199-4.834996q-4.265997-4.835997-4.265997-9.955993V562.91496z m36.976974 78.222945h29.866979q18.203987 0 24.888983-7.964994t6.683995-25.883982q0-9.386993-2.417998-15.359989-2.416998-5.973996-6.683995-9.529994-4.266997-3.554998-9.955993-4.834996-5.687996-1.279999-12.514992-1.28h-29.866979v64.853955z" fill="#FFFFFF" p-id="13614"></path><path d="M967.109684 339.115115H699.39087a73.386949 73.386949 0 0 1-73.613949-73.129949V0.00035L967.109684 339.115115z" fill="#4B7BF7" p-id="13615"></path></svg>