<?xml version="1.0" standalone="no"?><!DOCTYPE svg PUBLIC "-//W3C//DTD SVG 1.1//EN" "http://www.w3.org/Graphics/SVG/1.1/DTD/svg11.dtd"><svg t="1770530693313" class="icon" viewBox="0 0 1024 1024" version="1.1" xmlns="http://www.w3.org/2000/svg" p-id="21807" xmlns:xlink="http://www.w3.org/1999/xlink" width="200" height="200"><path d="M896 928H128.256A128.384 128.384 0 0 1 0 799.68v-575.36C0 153.536 57.472 96 128.256 96H896c70.592 0 128 57.408 128 128v576c0 70.592-57.408 128-128 128zM128.256 160C92.8 160 64 188.864 64 224.32v575.36c0 35.456 28.8 64.32 64.256 64.32H896a64 64 0 0 0 64-64v-576c0-35.264-28.672-64-64-64H128.256z m196.992 540.032l165.248-165.248a32 32 0 0 0 0-45.248L330.432 329.408a32 32 0 0 0-45.248 45.248l137.408 137.408-142.592 142.656a32 32 0 0 0 45.248 45.312z m425.472-38.656a32 32 0 0 0-32-32H535.168a32 32 0 0 0 0 64h183.552a32 32 0 0 0 32-32z" fill="#111111" p-id="21808"></path></svg>