<?xml version="1.0" standalone="no"?><!DOCTYPE svg PUBLIC "-//W3C//DTD SVG 1.1//EN" "http://www.w3.org/Graphics/SVG/1.1/DTD/svg11.dtd"><svg t="1771207669544" class="icon" viewBox="0 0 1024 1024" version="1.1" xmlns="http://www.w3.org/2000/svg" p-id="7138" xmlns:xlink="http://www.w3.org/1999/xlink" width="200" height="200"><path d="M85.362871 298.661744V128.014769A42.573132 42.573132 0 0 1 128.014769 85.362871h170.646976a42.691281 42.691281 0 1 0 0-85.343179H128.014769A127.995077 127.995077 0 0 0 0.019692 128.014769v170.646975a42.691281 42.691281 0 1 0 85.343179 0z m853.234876 0V128.014769a42.651898 42.651898 0 0 0-42.612515-42.651898h-170.646975a42.691281 42.691281 0 1 1 0-85.343179h170.646975A128.03446 128.03446 0 0 1 1023.980309 128.014769v170.646975a42.691281 42.691281 0 1 1-85.343179 0zM85.362871 725.338256v170.646975a42.573132 42.573132 0 0 0 42.651898 42.651898h170.646976a42.691281 42.691281 0 1 1 0 85.343179H128.014769A127.995077 127.995077 0 0 1 0.019692 895.985231v-170.646975a42.691281 42.691281 0 1 1 85.343179 0z m853.234876 0a42.691281 42.691281 0 0 1 85.343179 0v170.646975A127.995077 127.995077 0 0 1 895.985232 1023.980308h-170.646975a42.691281 42.691281 0 0 1 0-85.343179h170.646975a42.651898 42.651898 0 0 0 42.651898-42.651898v-170.646975z" fill="#2c2c2c" p-id="7139"></path><path d="M197.053345 493.45056h296.515365V196.935195H197.053345z m74.118995-222.39637h148.277374v148.277374H271.054191zM530.510058 196.935195v296.515365h296.672897V196.935195z m222.396369 222.396369h-148.23799V271.05419h148.277374zM308.113689 382.272066h74.040229V308.153071h-74.040229zM197.053345 827.064805h296.515365v-296.515365H197.053345z m74.118995-222.396369h148.277374v148.277374H271.054191z m444.792739-296.515365h-74.237145v74.118995h74.118996V308.153071zM530.510058 827.064805h74.158379v-74.118995H530.510058z m74.118995-222.396369v148.277374h74.118996v-148.277374z m148.277374 148.277374h-74.118995V827.064805h148.395523v-148.277374h-74.276528z m0-148.277374h74.276528v-74.118996h-74.276528z m-222.396369-74.118996v74.118996h74.158379v-74.118996z m-222.396369 185.297489h74.040229v-74.118995h-74.040229z" fill="#2c2c2c" p-id="7140"></path></svg>