<?xml version="1.0" standalone="no"?><!DOCTYPE svg PUBLIC "-//W3C//DTD SVG 1.1//EN" "http://www.w3.org/Graphics/SVG/1.1/DTD/svg11.dtd"><svg t="1770277193867" class="icon" viewBox="0 0 1024 1024" version="1.1" xmlns="http://www.w3.org/2000/svg" p-id="33241" xmlns:xlink="http://www.w3.org/1999/xlink" width="200" height="200"><path d="M902.8912 745.800907l-88.262206-582.300113-0.147357-0.73371c-7.196912-38.624692-33.190937-63.73765-66.381873-63.73765H247.748059c-18.944468 1.468444-52.575426 11.45489-64.324005 62.562894l-0.147356 0.587378L76.656379 756.668419l0.587378 0.147356c-1.468444 7.489578-2.203178 15.272845-2.203179 23.204491v19.972891c0 68.87874 55.954383 124.979456 124.978433 124.979456h582.593802c68.877717 0 124.978433-56.100716 124.978432-124.979456v-19.972891c0-11.896958-1.6158-23.351847-4.700045-34.219359zM244.239142 183.067432c5.03876-20.231787 13.296841-22.045085 17.915021-22.60381h473.907427c11.616572 0 15.814174 17.440208 16.515139 21.626553l71.800279 473.279117c-16.515139-8.653077-35.410488-13.675464-55.42431-13.675464H213.728244c-19.594267 0-38.07006 4.743024-54.445006 13.115715l84.955904-471.742111zM850.131579 794.774295c0 38.503942-32.926924 69.659523-73.617671 69.659523H206.118939c-40.691771 0-73.617671-31.155581-73.617671-69.659523v-18.503423c0-38.504966 32.926924-69.659523 73.617671-69.659522h570.393945c32.350802 0 59.813271 19.727297 69.734224 47.210231l3.451612 21.769816h0.431835V794.774295h0.001024z" fill="" p-id="33242"></path><path d="M282.701129 764.892731h-99.718119c-13.804401 0-24.965601 11.161201-24.965602 24.965601 0 13.805424 11.308557 24.966625 24.965602 24.966625h99.718119c13.658068 0 24.965601-11.161201 24.965601-24.966625 0-13.804401-11.308557-24.965601-24.965601-24.965601zM384.916115 565.602825h261.850753c28.637224 0 54.484915-11.014868 72.401984-30.546713 21.148669-23.203468 30.694069-56.981782 27.169802-95.018074-5.287423-59.331293-54.632271-86.794785-90.906429-103.389742-8.371668-66.234517-61.828161-117.636211-125.713167-117.63621-35.393091 0-69.170382 16.007579-93.108584 43.47107-39.21207 0.293689-74.017784 26.728758-87.675852 64.766073-39.063691 13.217023-92.962252 37.302581-101.626585 107.35403-3.377934 27.022447 4.257977 52.722782 21.588691 74.312496 28.197202 34.511002 78.56945 53.457516 116.019387 56.68707z m-78.779228-127.483486c4.903683-41.194214 34.326806-53.523007 75.660191-66.974367l13.871938-4.623298 2.801813-13.590529c4.483104-21.577434 21.577434-37.410028 41.333384-37.410028 2.102894 0 4.202719 0.140193 6.305613 0.560771l15.132652 2.52245 8.686846-12.470009c14.011108-20.456914 35.308157-32.086789 58.286498-32.086789 40.072671 0 72.998571 36.569894 73.559342 81.125669l0.141217 15.271821 15.412014 6.864338c36.56887 16.114003 67.255777 31.946596 70.336952 64.732304 2.240017 22.979364-2.521426 42.174542-13.59053 54.364165-8.267291 9.386788-19.755949 13.871939-33.908274 13.871939H393.567145c-25.780153-2.662643-59.968813-15.833617-76.921926-36.85028-8.686846-10.788717-12.190647-22.277376-10.508332-35.308157z" fill="" p-id="33243"></path></svg>