<?xml version="1.0" standalone="no"?><!DOCTYPE svg PUBLIC "-//W3C//DTD SVG 1.1//EN" "http://www.w3.org/Graphics/SVG/1.1/DTD/svg11.dtd"><svg class="icon" width="200px" height="200.00px" viewBox="0 0 1024 1024" version="1.1" xmlns="http://www.w3.org/2000/svg"><path fill="#1296db" d="M904 64H384.6c-31 0-56 25-56 56v112c0 31 25 56 56 56H904c31 0 56-25 56-56V120c0-31-25-56-56-56zM717.8 568v-112c0-31-25-56-56-56H120c-31 0-56 25-56 56v112c0 31 25 56 56 56h541.8c31 0 56-25 56-56zM897 736H192.6c-31 0-56 25-56 56v112c0 31 25 56 56 56h704.2c31 0 56-25 56-56v-112c0.2-31-25-56-55.8-56z"  /></svg>