<?xml version="1.0" standalone="no"?><!DOCTYPE svg PUBLIC "-//W3C//DTD SVG 1.1//EN" "http://www.w3.org/Graphics/SVG/1.1/DTD/svg11.dtd"><svg t="1770276937988" class="icon" viewBox="0 0 1024 1024" version="1.1" xmlns="http://www.w3.org/2000/svg" p-id="19078" xmlns:xlink="http://www.w3.org/1999/xlink" width="200" height="200"><path d="M481.3 899.4c-195.1 0-353.8-158.7-353.8-353.8 0-195.1 158.7-353.7 353.8-353.7h32v321.7H835v32c0 195.1-158.7 353.8-353.7 353.8z m-32-641.7c-144.7 16-257.7 139-257.7 287.9 0 159.7 129.9 289.7 289.7 289.7 148.9 0 271.9-112.9 287.9-257.7H449.3V257.7z" fill="#231815" p-id="19079"></path><path d="M879.5 469.8H553.6v-326h32c162.1 0 293.9 131.9 293.9 293.9v32.1z m-261.8-64.1h195.6c-14.2-101.2-94.4-181.4-195.6-195.6v195.6z" fill="#231815" p-id="19080"></path></svg>