<?xml version="1.0" standalone="no"?><!DOCTYPE svg PUBLIC "-//W3C//DTD SVG 1.1//EN" "http://www.w3.org/Graphics/SVG/1.1/DTD/svg11.dtd"><svg t="1770469219183" class="icon" viewBox="0 0 1316 1024" version="1.1" xmlns="http://www.w3.org/2000/svg" p-id="5838" xmlns:xlink="http://www.w3.org/1999/xlink" width="257.03125" height="200"><path d="M203.55599 536.135611L148.479576 684.030046a33.42619 33.42619 0 0 0 5.119985 32.32905c7.16798 9.435402 18.943946 14.994243 31.451339 14.994243a38.619318 38.619318 0 0 0 36.498181-24.137074l55.149557-147.967577c6.948552-18.651375-3.803418-38.911889-23.990789-45.348442-20.041086-6.436553-42.130165 3.437704-49.005574 22.08908z m231.935337 0L380.34177 684.030046a33.42619 33.42619 0 0 0 5.046843 32.32905c7.314265 9.435402 19.017089 14.994243 31.451339 14.994243a38.619318 38.619318 0 0 0 36.571324-24.137074l55.149557-147.967577c6.948552-18.651375-3.803418-38.911889-23.990789-45.348442-20.187371-6.436553-42.130165 3.437704-49.078717 22.08908z m220.744512 0l-55.149556 147.967577a33.42619 33.42619 0 0 0 5.119985 32.329051c7.241122 9.435402 18.943946 14.994243 31.451339 14.994243a38.619318 38.619318 0 0 0 36.498181-24.137074l55.149557-147.967577c6.948552-18.651375-3.730275-38.911889-23.917646-45.348442-20.187371-6.436553-42.203308 3.437704-49.15186 22.089079z" p-id="5839"></path><path d="M733.840189 950.634998H154.11156c-43.37359 0-78.628347-34.377045-78.628347-76.580352L73.142648 292.570593h1170.282371v164.570958c0 20.260514 14.62853 34.889043 35.401041 34.889043A37.302751 37.302751 0 0 0 1316.567667 455.312985V150.015571C1316.567667 67.364379 1247.447864 0 1162.456107 0H154.11156C69.119803 0 0 67.291236 0 150.015571v723.965932C0 956.632695 69.119803 1023.997074 154.11156 1023.997074h579.728629a37.302751 37.302751 0 0 0 37.741606-36.717609 37.229608 37.229608 0 0 0-37.741606-36.644467zM152.063566 73.142648h1012.440535c43.519876 0 78.920917 30.207914 78.920918 67.291236V219.427944H73.142648V140.433884C73.142648 103.350562 108.54369 73.142648 152.136708 73.142648z" p-id="5840"></path><path d="M1229.308488 681.908909v-29.403345c0-77.458064-66.998666-140.507027-149.211003-140.507027h-41.691309c-82.285479 0-149.284145 63.048963-149.284145 140.507027v29.842201c-47.835292 7.314265-84.552901 46.226154-84.552901 93.256876v153.745847c0 52.150708 45.055871 94.646587 100.571141 94.646586h310.856255c55.442127 0 100.571141-42.422736 100.571141-94.646586v-153.745847c-0.073143-47.908435-38.180462-87.55175-87.259179-93.62259z m-266.970666-29.403345c0-39.49703 34.084474-71.679795 76.068354-71.679795h41.691309c41.837595 0 76.068354 32.182765 76.068355 71.679795v26.477639h-193.828018v-26.477639z m280.940911 276.844924c0 14.116531-12.214822 25.746212-27.35535 25.746212h-310.856255c-14.994243 0-27.35535-11.483396-27.35535-25.746212v-153.745847c0-14.116531 12.214822-25.746212 27.428493-25.746212h310.856255c15.067386 0 27.428493 11.483396 27.428493 25.746212v153.745847h-0.146286z" p-id="5841"></path></svg>