<?xml version="1.0" standalone="no"?><!DOCTYPE svg PUBLIC "-//W3C//DTD SVG 1.1//EN" "http://www.w3.org/Graphics/SVG/1.1/DTD/svg11.dtd"><svg t="1770786747769" class="icon" viewBox="0 0 2982 1024" version="1.1" xmlns="http://www.w3.org/2000/svg" p-id="23338" xmlns:xlink="http://www.w3.org/1999/xlink" width="582.421875" height="200"><path d="M694.53913 552.069565l-35.617391 244.869565H22.26087l35.617391-244.869565h636.660869z m-155.826087-31.165217l-13.356521-53.426087H249.321739L222.608696 520.904348H44.521739L178.086957 267.130435l-17.808696-22.26087h485.286956l66.782609 276.034783h-173.634783z m-17.808695 195.895652L534.26087 623.304348H195.895652l-13.356522 93.495652h338.365218zM289.391304 391.791304h218.156522L489.73913 325.008696H325.008696l-35.617392 66.782608zM970.573913 325.008696l-66.782609 485.286956H756.869565L823.652174 356.173913l-48.973913 8.904348 13.356522-93.495652 195.895652-40.069566-13.356522 93.495653z m62.330435-71.234783l-17.808696-22.26087H1157.565217l-17.808695 62.330435h311.652174l-8.904348 75.686957h-169.182609l-13.356522 84.591304h138.017392l-8.904348 75.686957h-138.017391l-13.356522 84.591304h151.373913l-8.904348 75.686957h-151.373913l-17.808696 120.208695H1068.521739l62.330435-440.765217h-8.904348l-26.713043 93.495652h-120.208696l57.878261-209.252174zM2186.017391 244.869565l-8.904348 75.686957h-227.060869l-26.713044 195.895652H2181.565217l-8.904347 75.686956H1914.434783l-31.165218 213.704348h-151.373913l31.165218-213.704348h-258.226087l8.904347-75.686956h258.226087l26.713044-195.895652h-227.06087l8.904348-75.686957h605.495652z m-445.217391 244.869565H1602.782609l-13.356522-138.017391h138.017391l13.356522 138.017391zM2003.478261 351.721739h138.017391L2092.521739 489.73913h-138.017391L2003.478261 351.721739zM2889.46087 520.904348l-40.069566 271.582609H2261.704348l40.069565-271.582609h587.686957z m-44.52174-258.226087l57.878261 227.060869h-129.113043l-4.452174-13.356521H2301.773913l8.904348-57.878261 115.756522-169.182609-17.808696-17.808696h195.895652l-120.208696 173.634783h262.678261l-35.617391-142.469565h133.565217z m-133.565217 454.121739l17.808696-120.208696h-289.391305l-17.808695 120.208696h289.391304z" fill="#54575B" p-id="23339"></path></svg>