<?xml version="1.0" standalone="no"?><!DOCTYPE svg PUBLIC "-//W3C//DTD SVG 1.1//EN" "http://www.w3.org/Graphics/SVG/1.1/DTD/svg11.dtd"><svg t="1770347474411" class="icon" viewBox="0 0 1024 1024" version="1.1" xmlns="http://www.w3.org/2000/svg" p-id="62184" xmlns:xlink="http://www.w3.org/1999/xlink" width="200" height="200"><path d="M981.44 670.72v-128c0-58.88-48-106.56-106.56-106.56h-480V393.6c0-52.8-43.2-96-96-96h-192V148.16c0-17.6-14.4-32-32-32s-32 14.4-32 32v501.12c0 45.12 28.16 83.52 67.84 99.2l-41.28 116.48a32.352 32.352 0 0 0 30.08 42.88c13.12 0 25.6-8.32 30.08-21.44l46.08-130.24H848l46.08 130.24c4.8 13.12 16.96 21.44 30.08 21.44a32.224 32.224 0 0 0 30.08-42.88l-39.36-111.36a85.056 85.056 0 0 0 66.56-82.88zM106.56 361.6h192c17.6 0 32 14.4 32 32v42.56h-224V361.6z m810.88 309.12c0 11.84-9.6 21.44-21.44 21.44H149.44c-23.68 0-42.56-19.2-42.56-42.56v-149.12h768c23.68 0 42.56 19.2 42.56 42.56v127.68z" fill="#3E3E3E" p-id="62185"></path></svg>