<?xml version="1.0" standalone="no"?><!DOCTYPE svg PUBLIC "-//W3C//DTD SVG 1.1//EN" "http://www.w3.org/Graphics/SVG/1.1/DTD/svg11.dtd"><svg t="1770425183150" class="icon" viewBox="0 0 1024 1024" version="1.1" xmlns="http://www.w3.org/2000/svg" p-id="13040" xmlns:xlink="http://www.w3.org/1999/xlink" width="200" height="200"><path d="M66.31 352.33v464.16c0 79.07 64.32 143.39 143.38 143.39h464.17c79.06 0 143.38-64.32 143.38-143.39V539.71h-60v276.78a83.48 83.48 0 0 1-83.38 83.39H209.69a83.48 83.48 0 0 1-83.38-83.39V352.33a83.48 83.48 0 0 1 83.38-83.39h232.08v-60H209.69c-79.06 0-143.38 64.33-143.38 143.39z" p-id="13041"></path><path d="M901.33 127.11l-1.76-1.76a126.42 126.42 0 0 0-178.57 0L443 403.27c-0.41 0.4-0.8 0.82-1.18 1.25a29.93 29.93 0 0 0-5.14 8l-89.14 205.62a30 30 0 0 0 27.53 41.93 29.36 29.36 0 0 0 5.1-0.44l198.73-34.26A30 30 0 0 0 595 617l77.31-77.31 229.36-229.33q4.16-4.16 7.88-8.63a129.4 129.4 0 0 0 0-165.6q-3.87-4.66-8.22-9.02z m-42.08 140.82L587.47 539.71l-28.15 28.15-134.66 23.22 22.26-51.37 42.49-98.05 274-273.9a66.36 66.36 0 0 1 93.72 0l1.76 1.76a69.61 69.61 0 0 1 20.61 49.38 68.73 68.73 0 0 1-20.25 49.03z" p-id="13042"></path></svg>