<?xml version="1.0" standalone="no"?><!DOCTYPE svg PUBLIC "-//W3C//DTD SVG 1.1//EN" "http://www.w3.org/Graphics/SVG/1.1/DTD/svg11.dtd"><svg t="1770530711043" class="icon" viewBox="0 0 1352 1024" version="1.1" xmlns="http://www.w3.org/2000/svg" p-id="27193" xmlns:xlink="http://www.w3.org/1999/xlink" width="264.0625" height="200"><path d="M82.257107 927.835384a619.244973 619.244973 0 1 1 1074.046002 0M82.257107 927.835384a619.244973 619.244973 0 1 1 1074.046002 0" fill="#ECF6FF" p-id="27194"></path><path d="M96.878169 918.116678m9.632699 0l57.28016 0q9.6327 0 9.6327 9.6327l0 0.086006q0 9.6327-9.6327 9.6327l-57.28016 0q-9.6327 0-9.632699-9.6327l0-0.086006q0-9.6327 9.632699-9.6327Z" fill="#0188FE" p-id="27195"></path><path d="M182.712402 918.116678m9.6327 0l562.738869 0q9.6327 0 9.632699 9.6327l0 0.086006q0 9.6327-9.632699 9.6327l-562.738869 0q-9.6327 0-9.6327-9.6327l0-0.086006q0-9.6327 9.6327-9.6327Z" fill="#0188FE" p-id="27196"></path><path d="M801.957375 918.116678m9.6327 0l320.459273 0q9.6327 0 9.6327 9.6327l0 0.086006q0 9.6327-9.6327 9.6327l-320.459273 0q-9.6327 0-9.6327-9.6327l0-0.086006q0-9.6327 9.6327-9.6327Z" fill="#0188FE" p-id="27197"></path><path d="M96.878169 831.25037m12.900937 0l115.506388 0q12.900937 0 12.900937 12.900936l0 0q0 12.900937-12.900937 12.900937l-115.506388 0q-12.900937 0-12.900937-12.900937l0 0q0-12.900937 12.900937-12.900936Z" fill="#0188FE" p-id="27198"></path><path d="M999.427716 831.25037m12.900937 0l79.211753 0q12.900937 0 12.900937 12.900936l0 0q0 12.900937-12.900937 12.900937l-79.211753 0q-12.900937 0-12.900937-12.900937l0 0q0-12.900937 12.900937-12.900936Z" fill="#0188FE" p-id="27199"></path><path d="M879.018972 884.316223H411.575023A67.60091 67.60091 0 0 1 344.06012 817.059339V422.290669a67.514903 67.514903 0 0 1 67.60091-67.514903h467.357942a67.514903 67.514903 0 0 1 67.600909 67.514903V817.059339a67.60091 67.60091 0 0 1-67.600909 67.256884zM888.135634 442.41613H281.877604" fill="#BDE0FE" p-id="27200"></path><path d="M281.877604 429.515194h606.25803v25.801873H281.877604z" fill="#0188FE" p-id="27201"></path><path d="M555.033442 725.462687l67.084872-194.030092" fill="#BDE0FE" p-id="27202"></path><path d="M542.837756 721.196777l67.05047-193.944085 24.382771 8.428612-67.05047 193.944085zM521.405 713.507819L431.012435 623.115254l90.392565-90.392565 18.233324 18.233324-72.15924 72.159241 72.15924 72.15924-18.233324 18.233325zM659.445025 713.507819l-18.233324-18.233325 72.15924-72.15924-72.15924-72.159241 18.233324-18.233324 90.392565 90.392565-90.392565 90.392565zM825.093055 713.851843a45.58331 45.58331 0 1 0 46.271361 45.583311 46.013342 46.013342 0 0 0-46.271361-45.583311z m0 67.686916a22.103605 22.103605 0 1 1 22.447631-22.103605 22.275618 22.275618 0 0 1-22.447631 22.361624z" fill="#0188FE" p-id="27203"></path><path d="M947.393937 735.869443a16.169174 16.169174 0 0 0-15.137099-14.879081h-1.032075a25.801874 25.801874 0 0 1-25.801874-25.801874 29.070111 29.070111 0 0 1 2.322169-9.718706 18.921374 18.921374 0 0 0-7.138519-23.13568l-1.032075-0.602044V363.892428a78.609709 78.609709 0 0 0-78.523702-78.523703H353.090776a78.609709 78.609709 0 0 0-78.523703 78.523703v394.424645a78.695715 78.695715 0 0 0 78.523703 78.523703h389.95232a19.093387 19.093387 0 0 0 7.998581 20.555492l30.01618 16.5132a19.437412 19.437412 0 0 0 7.740562 1.548112 20.211468 20.211468 0 0 0 14.793075-6.278456 40.938973 40.938973 0 0 1 21.415555-12.642918 40.766961 40.766961 0 0 1 21.501562 12.900937 20.813512 20.813512 0 0 0 14.965086 6.364462 19.69543 19.69543 0 0 0 8.600625-1.892137l30.360205-16.5132 0.68805-0.516037a18.491343 18.491343 0 0 0 6.450468-22.533637 29.414136 29.414136 0 0 1-2.322168-9.804712 25.801874 25.801874 0 0 1 25.801874-25.801874h1.204087a16.169174 16.169174 0 0 0 14.965087-14.87908 156.703381 156.703381 0 0 0 2.580187-23.995743 150.940962 150.940962 0 0 0-2.408175-23.995742z m-594.303161 79.03974a56.678116 56.678116 0 0 1-56.59211-56.59211V363.892428a56.678116 56.678116 0 0 1 56.59211-56.59211h467.529954a56.678116 56.678116 0 0 1 56.678117 56.59211v285.884762l-7.654556-4.1283a19.437412 19.437412 0 0 0-7.740562-1.548112 20.813512 20.813512 0 0 0-14.621062 5.934431A39.906898 39.906898 0 0 1 826.297143 662.248096a39.906898 39.906898 0 0 1-21.071531-12.126881 20.985524 20.985524 0 0 0-14.793074-6.020437 19.781437 19.781437 0 0 0-7.740562 0.946069h-0.602044l-31.134261 17.201249h-0.774056a18.663355 18.663355 0 0 0-6.450469 22.619643 28.210049 28.210049 0 0 1 2.322169 9.804712 25.801874 25.801874 0 0 1-25.801874 25.801873h-1.290094a16.169174 16.169174 0 0 0-14.965086 14.879081 150.940962 150.940962 0 0 0-2.580188 23.995743 153.779168 153.779168 0 0 0 2.580188 23.995742 16.255181 16.255181 0 0 0 15.223105 14.879081h1.032075a25.801874 25.801874 0 0 1 24.253762 16.169174H353.090776z m392.618514 13.674993v-9.288675a26.489924 26.489924 0 0 1 0.516037 5.246381 22.619643 22.619643 0 0 1-0.516037 4.042294z m178.978998-52.979848a49.625604 49.625604 0 0 0-43.51916 48.937554 49.02356 49.02356 0 0 0 2.666193 14.879081l-21.931592 12.040874a83.426059 83.426059 0 0 0-8.600625-7.568549 41.627023 41.627023 0 0 0-55.560035 0 91.252627 91.252627 0 0 0-8.600625 7.482543l-20.985524-11.524837a47.131423 47.131423 0 0 0 2.666194-14.965087 49.539598 49.539598 0 0 0-43.003123-48.937554 117.484532 117.484532 0 0 1-1.548113-15.739143 114.646326 114.646326 0 0 1 1.548113-15.739143 49.539598 49.539598 0 0 0 43.003123-48.937554 46.529379 46.529379 0 0 0-2.666194-14.879081l22.705649-12.298893a74.653422 74.653422 0 0 0 8.600625 7.310531 41.799036 41.799036 0 0 0 54.183935 0 84.54414 84.54414 0 0 0 8.600625-7.138518l21.673574 11.868862a48.249504 48.249504 0 0 0 40.852967 63.902641 85.404202 85.404202 0 0 1 0 31.478286z" fill="#0188FE" p-id="27204"></path><path d="M385.171106 650.723259a5.332387 5.332387 0 0 0-5.332387 5.074368L379.236675 679.449345a5.246381 5.246381 0 0 0 5.074368 5.418394 5.160375 5.160375 0 0 0 5.332388-5.418394l0.68805-23.393699a5.246381 5.246381 0 0 0-5.160375-5.332387zM384.225037 645.992915a5.246381 5.246381 0 0 0 5.332387-5.246381l0.516038-62.010503a5.246381 5.246381 0 0 0-5.160375-5.246381 5.160375 5.160375 0 0 0-5.246381 5.160374l-0.516037 62.010504a5.246381 5.246381 0 0 0 5.074368 5.332387z" fill="#FFFFFF" p-id="27205"></path></svg>