<?xml version="1.0" standalone="no"?><!DOCTYPE svg PUBLIC "-//W3C//DTD SVG 1.1//EN" "http://www.w3.org/Graphics/SVG/1.1/DTD/svg11.dtd"><svg t="1770786724787" class="icon" viewBox="0 0 1024 1024" version="1.1" xmlns="http://www.w3.org/2000/svg" p-id="22319" xmlns:xlink="http://www.w3.org/1999/xlink" width="200" height="200"><path d="M639.138056 1024c-2.649775 0-5.28932-0.399001-7.847018-1.176541-5.749705-1.81085-10.312639-5.42232-12.962414-10.2001a17.146808 17.146808 0 0 1-0.726386-15.059726l131.772605-311.016086c3.273854-7.775402 11.949565-12.952183 21.525587-12.952183 2.649775 0 5.28932 0.399001 7.847017 1.176541 11.867719 3.683085 17.975502 14.97788 13.6888 25.17798L660.653412 1011.058048c-3.273854 7.683325-11.949565 12.941952-21.525587 12.941952z m220.893036-54.939355c-6.015706 0-11.949565-2.45539-16.236267-6.752322a22.794205 22.794205 0 0 1 0.092077-32.298612l82.582955-82.490878-82.675032-82.582955a22.916975 22.916975 0 0 1 0-32.390689 22.712359 22.712359 0 0 1 16.154421-6.660245c6.107783 0 11.857488 2.373544 16.14419 6.660245l98.829453 98.727146c4.286702 4.296933 6.752323 10.046638 6.752323 16.164652 0 6.107783-2.373544 11.857488-6.752323 16.14419l-98.727145 98.829453a22.712359 22.712359 0 0 1-16.164652 6.650015z m-310.013468 6.025937c-6.118014 0-11.867719-2.373544-16.246498-6.752323l-98.727146-98.645299c-4.296933-4.286702-6.752323-10.026176-6.752322-16.14419 0-6.118014 2.373544-11.867719 6.752322-16.154421l98.829454-98.727146a22.712359 22.712359 0 0 1 16.14419-6.660246c6.118014 0 11.867719 2.363313 16.154421 6.650015a22.916975 22.916975 0 0 1 0 32.400919l-82.582955 82.582956 82.582955 82.572724c4.286702 4.296933 6.752323 10.046638 6.752323 16.164652 0 6.107783-2.373544 11.857488-6.752323 16.14419-4.194625 4.102548-10.128484 6.568169-16.154421 6.568169z m-48.729264-372.318993c-223.952043 0-406.152223 178.895634-406.152223 398.775822 0 11.816565-9.749945 21.361894-21.760895 21.361894S51.614347 1013.359976 51.614347 1001.543411c0-201.546608 138.361235-371.582376 326.628275-424.291418-107.853012-46.652413-183.438106-152.459267-183.438106-275.412928C194.814747 135.895614 332.296133 0.920771 501.298591 0.920771c169.012689 0 306.504306 134.974843 306.504306 300.918294 0 122.974123-75.605555 228.760516-183.458567 275.412928a452.886482 452.886482 0 0 1 105.561315 44.606255c11.120871 7.243401 4.65501 22.876052-3.764932 31.306224-5.626936 5.606474-14.773264 5.586013-27.459446-0.061385-83.861804-33.556999-149.65603-50.335498-197.382676-50.335498zM238.336537 301.839065c0 142.381936 117.950804 258.194505 262.951823 258.194505 145.001019 0 262.982516-115.812569 262.982516-258.194505 0-142.371705-117.981497-258.184274-262.982516-258.184274-145.001019 0-262.951823 115.812569-262.951823 258.184274z" fill="#2178ED" p-id="22320"></path></svg>