<?xml version="1.0" standalone="no"?><!DOCTYPE svg PUBLIC "-//W3C//DTD SVG 1.1//EN" "http://www.w3.org/Graphics/SVG/1.1/DTD/svg11.dtd"><svg t="1770258250308" class="icon" viewBox="0 0 1024 1024" version="1.1" xmlns="http://www.w3.org/2000/svg" p-id="30564" xmlns:xlink="http://www.w3.org/1999/xlink" width="200" height="200"><path d="M181.184 1.472h465.408c10.304 0 20.608 4.736 27.84 11.712l283.52 283.84a40.768 40.768 0 0 1 11.456 28.416V917.312c0 28.672-11.712 54.848-30.4 74.368l-0.512 0.256-0.832 0.256c-18.624 18.624-44.8 30.336-73.536 30.336H181.184a105.6 105.6 0 0 1-74.112-30.656v-0.256l-0.256 0.256c-19.2-19.2-30.912-45.952-30.912-74.624V106.752c0-28.672 11.712-54.848 30.912-73.792A106.048 106.048 0 0 1 181.184 1.472z m238.144 661.184c10.88 6.72 14.464 21.184 7.808 32.32a22.976 22.976 0 0 1-32 8.064L240.832 611.136c-14.784-9.216-14.208-31.232 0-40.384l154.304-91.648a23.04 23.04 0 0 1 32 8.384c6.656 10.56 3.072 25.6-7.808 32.256l-120.32 71.04 120.32 71.872z m231.488 40.384a23.04 23.04 0 0 1-32-8.064 23.424 23.424 0 0 1 7.808-32.32l120.32-71.872-120.32-71.04a23.552 23.552 0 0 1-7.872-32.256 23.104 23.104 0 0 1 32-8.384l153.728 91.648a23.296 23.296 0 0 1 0 40.384l-153.664 91.904zM560.832 427.328a23.872 23.872 0 0 1 30.656-13.376 23.936 23.936 0 0 1 13.312 30.08l-119.744 310.848a23.68 23.68 0 0 1-30.912 13.376 23.424 23.424 0 0 1-13.056-30.336l119.744-310.592z m290.496-125.888l-181.568-181.312v139.008c0 10.88 4.736 21.44 11.392 28.672l0.832 1.088a43.008 43.008 0 0 0 30.4 12.544h138.944zM622.656 80H181.184a26.944 26.944 0 0 0-18.944 8.064 30.592 30.592 0 0 0-7.808 18.688v810.496c0 7.232 3.648 13.888 7.808 18.944a25.344 25.344 0 0 0 18.944 7.808h682.944a24.512 24.512 0 0 0 18.944-7.808 25.344 25.344 0 0 0 7.808-18.944V348.544h-178.56c-24.512 0-46.784-9.728-63.488-26.176l-1.088-1.728a88.896 88.896 0 0 1-25.088-61.504V80z" p-id="30565"></path></svg>