<?xml version="1.0" standalone="no"?><!DOCTYPE svg PUBLIC "-//W3C//DTD SVG 1.1//EN" "http://www.w3.org/Graphics/SVG/1.1/DTD/svg11.dtd"><svg t="1770791960749" class="icon" viewBox="0 0 1024 1024" version="1.1" xmlns="http://www.w3.org/2000/svg" p-id="5030" xmlns:xlink="http://www.w3.org/1999/xlink" width="200" height="200"><path d="M510.76267 51.202635c7.679979 0 15.359958 2.047994 22.037274 5.631984l361.300354 208.895435a44.522546 44.522546 0 0 1 22.015941 37.887897v416.766871c0 15.359958-8.191978 30.207918-22.015941 37.887898l-361.300354 208.895434a46.975873 46.975873 0 0 1-22.037274 5.631985c-7.679979 0-15.359958-2.047994-22.037274-5.631985L127.425042 758.27272a44.522546 44.522546 0 0 1-22.037274-37.887898V303.617951c0-15.359958 8.213311-30.207918 22.037274-37.887897L488.74673 56.834619a46.975873 46.975873 0 0 1 22.037273-5.631984m0-51.199862c-16.405289 0-32.810578 4.095989-47.658537 12.799966L101.803778 221.186174a96.149073 96.149073 0 0 0-47.658538 81.919778v416.766872c0 33.791908 17.919951 65.023824 47.658538 81.919778l361.300354 208.895434c14.84796 8.191978 31.253249 12.799965 47.658538 12.799965 16.405289 0 32.789245-4.095989 47.658538-12.799965l361.300354-208.895434a96.149073 96.149073 0 0 0 47.658538-81.919778V303.617951c0-33.791908-17.941285-65.023824-47.658538-81.919778L557.909209 12.802739a90.687754 90.687754 0 0 0-47.146539-12.799966z" fill="#1296db" p-id="5031"></path><path d="M771.625964 669.184961a26.538595 26.538595 0 0 1-35.88257 9.727974l-225.492723-130.047648-225.492722 130.047648c-12.3093 7.167981-28.693256 2.559993-35.370571-9.727974a25.557264 25.557264 0 0 1 9.749307-35.327904l226.004721-130.559647V243.714113a26.239929 26.239929 0 0 1 26.133263-26.111929 26.239929 26.239929 0 0 1 26.133262 26.111929v259.583297l224.980724 130.047648c11.775968 7.167981 16.405289 23.039938 9.215975 35.839903z" fill="#1296db" p-id="5032"></path></svg>