<?xml version="1.0" standalone="no"?><!DOCTYPE svg PUBLIC "-//W3C//DTD SVG 1.1//EN" "http://www.w3.org/Graphics/SVG/1.1/DTD/svg11.dtd"><svg class="icon" width="200px" height="200.00px" viewBox="0 0 1024 1024" version="1.1" xmlns="http://www.w3.org/2000/svg"><path fill="#2c2c2c" d="M51.25632 665.55904c28.26752 0.01536 51.1744 22.89664 51.1744 51.15904v128.14336c0.04096 42.37312 34.45248 76.73856 76.8512 76.73856H307.3024c28.27776 0 51.1744 22.96832 51.1744 51.24096-0.04096 28.2368-22.92224 51.15904-51.1744 51.15904H179.27168C80.32256 1024 0.04608 943.77984 0 844.86144v-128.14336c0-28.27264 22.97856-51.15904 51.25632-51.15904zM972.74368 665.55904c28.27776 0 51.25632 22.8864 51.25632 51.15904v128.14336c-0.04096 98.9184-80.31744 179.13856-179.2768 179.13856H716.6976c-28.25216 0-51.13344-22.92224-51.1744-51.15904 0-28.27264 22.89664-51.24096 51.1744-51.24096h128.0256c42.3936 0 76.80512-34.36544 76.84096-76.73856v-128.14336c0-28.2624 22.912-51.14368 51.17952-51.15904zM716.94848 290.11968c28.28288 0 51.26144 22.8864 51.26144 51.15904 0 28.27264-22.97856 51.15904-51.26144 51.15904h-153.77408v324.28032c-0.01536 28.25728-22.90176 51.15904-51.1744 51.15904-28.27264 0-51.15904-22.90176-51.1744-51.15904V392.43776H307.3024a51.14368 51.14368 0 0 1-51.17952-51.15904 51.14368 51.14368 0 0 1 51.1744-51.15904h409.6512zM307.3024 0c28.26752 0 51.15392 22.90176 51.1744 51.15904C358.4768 79.43168 335.58016 102.4 307.3024 102.4H179.27168c-42.40896 0-76.8256 34.34496-76.84608 76.73856v128.14336c0 28.2624-22.90688 51.14368-51.1744 51.15904C22.97856 358.44096 0 335.55456 0 307.28192V179.13856C0.02048 80.19968 80.30208 0 179.28192 0H307.3024zM844.7232 0c98.9696 0 179.25632 80.19968 179.2768 179.13856v128.14336c0 28.27264-22.97856 51.15904-51.25632 51.15904-28.26752-0.01536-51.17952-22.89664-51.17952-51.15904V179.13856C921.5488 136.74496 887.13216 102.4 844.7232 102.4H716.6976c-28.27776 0-51.1744-22.96832-51.1744-51.24096 0.02048-28.2624 22.90688-51.15904 51.1744-51.15904h128.0256z" /></svg>