<?xml version="1.0" standalone="no"?><!DOCTYPE svg PUBLIC "-//W3C//DTD SVG 1.1//EN" "http://www.w3.org/Graphics/SVG/1.1/DTD/svg11.dtd"><svg t="1770175341943" class="icon" viewBox="0 0 1024 1024" version="1.1" xmlns="http://www.w3.org/2000/svg" p-id="40632" xmlns:xlink="http://www.w3.org/1999/xlink" width="200" height="200"><path d="M497.5 641.8c5.8 4.7 14.3 3.9 19-1.9l183.1-223.3c4.7-5.8 3.9-14.3-1.9-19-5.8-4.7-14.3-3.9-19 1.9L495.6 622.8c-4.7 5.7-3.9 14.2 1.9 19z" fill="#515151" p-id="40633"></path><path d="M513.7 641.8c-5.8 4.7-14.3 3.9-19-1.9L311.6 416.6c-4.7-5.8-3.9-14.3 1.9-19 5.8-4.7 14.3-3.9 19 1.9l183.1 223.3c4.7 5.7 3.8 14.2-1.9 19z" fill="#515151" p-id="40634"></path><path d="M875.6 419.6L773.2 249c-4.9-8.1-13.7-13.1-23.1-13.1H275.9c-9.5 0-18.2 5-23.1 13.1L150.4 419.6c-5.9 9.8-5 22.1 2.3 30.9l128 156.5 0.2-0.2c2.4 3.7 6.4 6.2 11.1 6.2 7.5 0 13.5-6 13.5-13.5 0-3.2-1.3-6-3.1-8.3l0.2-0.1-129-157.7L276 262.7h474.2l102.4 170.7L513 848.5 370.8 674.7l-0.2 0.1c-2.5-2.9-6-4.9-10.2-4.9-7.4 0-13.5 6-13.5 13.5 0 2.6 0.9 4.9 2.2 7l-0.2 0.2L492 865.5c5.1 6.3 12.8 9.9 20.9 9.9 8.1 0 15.7-3.6 20.9-9.9l339.5-415c7.3-8.7 8.2-21.1 2.3-30.9z" fill="#515151" p-id="40635"></path></svg>