<?xml version="1.0" standalone="no"?><!DOCTYPE svg PUBLIC "-//W3C//DTD SVG 1.1//EN" "http://www.w3.org/Graphics/SVG/1.1/DTD/svg11.dtd"><svg class="icon" width="200px" height="200.00px" viewBox="0 0 1024 1024" version="1.1" xmlns="http://www.w3.org/2000/svg"><path fill="#1296db" d="M356.592941 572.235294A95.171765 95.171765 0 0 1 451.764706 667.407059v231.303529a95.171765 95.171765 0 0 1-95.171765 95.171765H125.289412A95.171765 95.171765 0 0 1 30.117647 898.710588v-231.303529c0-52.585412 42.586353-95.171765 95.171765-95.171765h231.303529z m542.117647 0A95.171765 95.171765 0 0 1 993.882353 667.407059v231.303529a95.171765 95.171765 0 0 1-95.171765 95.171765h-231.303529A95.171765 95.171765 0 0 1 572.235294 898.710588v-231.303529c0-52.585412 42.586353-95.171765 95.171765-95.171765h231.303529z m-542.117647 60.235294H125.289412a34.936471 34.936471 0 0 0-34.454588 29.274353L90.352941 667.407059v231.303529c0 17.347765 12.649412 31.744 29.274353 34.454588l5.662118 0.481883h231.303529a34.936471 34.936471 0 0 0 34.454588-29.274353L391.529412 898.710588v-231.303529a34.936471 34.936471 0 0 0-34.936471-34.936471z m542.117647 0h-231.303529a34.936471 34.936471 0 0 0-34.454588 29.274353L632.470588 667.407059v231.303529c0 17.347765 12.649412 31.744 29.274353 34.454588l5.662118 0.481883h231.303529a34.936471 34.936471 0 0 0 34.454588-29.274353L933.647059 898.710588v-231.303529a34.936471 34.936471 0 0 0-34.936471-34.936471z m-542.117647-602.352941C409.178353 30.117647 451.764706 72.704 451.764706 125.289412v231.303529A95.171765 95.171765 0 0 1 356.592941 451.764706H125.289412A95.171765 95.171765 0 0 1 30.117647 356.592941V125.289412C30.117647 72.704 72.704 30.117647 125.289412 30.117647h231.303529z m542.117647 0c52.585412 0 95.171765 42.586353 95.171765 95.171765v231.303529a95.171765 95.171765 0 0 1-95.171765 95.171765h-231.303529A95.171765 95.171765 0 0 1 572.235294 356.592941V125.289412C572.235294 72.704 614.821647 30.117647 667.407059 30.117647h231.303529z m-542.117647 60.235294H125.289412a34.936471 34.936471 0 0 0-34.454588 29.274353L90.352941 125.289412v231.303529c0 17.347765 12.649412 31.744 29.274353 34.454588l5.662118 0.481883h231.303529a34.936471 34.936471 0 0 0 34.454588-29.274353L391.529412 356.592941V125.289412a34.936471 34.936471 0 0 0-34.936471-34.936471z m542.117647 0h-231.303529a34.936471 34.936471 0 0 0-34.454588 29.274353L632.470588 125.289412v231.303529c0 17.347765 12.649412 31.744 29.274353 34.454588l5.662118 0.481883h231.303529a34.936471 34.936471 0 0 0 34.454588-29.274353L933.647059 356.592941V125.289412a34.936471 34.936471 0 0 0-34.936471-34.936471z"  /></svg>