<?xml version="1.0" standalone="no"?><!DOCTYPE svg PUBLIC "-//W3C//DTD SVG 1.1//EN" "http://www.w3.org/Graphics/SVG/1.1/DTD/svg11.dtd"><svg t="1770784017382" class="icon" viewBox="0 0 1024 1024" version="1.1" xmlns="http://www.w3.org/2000/svg" p-id="14531" xmlns:xlink="http://www.w3.org/1999/xlink" width="200" height="200"><path d="M128 320a64 64 0 0 1 64 64v256a64 64 0 0 1-128 0V384a64 64 0 0 1 64-64z m256-256a64 64 0 0 1 64 64v768a64 64 0 1 1-128 0V128a64 64 0 0 1 64-64z m256 160a64 64 0 0 1 64 64v448a64 64 0 1 1-128 0v-448a64 64 0 0 1 64-64zM896 320a64 64 0 0 1 64 64v288a64 64 0 1 1-128 0V384a64 64 0 0 1 64-64z" p-id="14532"></path></svg>