<?xml version="1.0" standalone="no"?><!DOCTYPE svg PUBLIC "-//W3C//DTD SVG 1.1//EN" "http://www.w3.org/Graphics/SVG/1.1/DTD/svg11.dtd"><svg t="1770294175268" class="icon" viewBox="0 0 1024 1024" version="1.1" xmlns="http://www.w3.org/2000/svg" p-id="30760" xmlns:xlink="http://www.w3.org/1999/xlink" width="200" height="200"><path d="M580.775 203.428c31.242-31.242 81.895-31.242 113.137 0l117.107 117.106c31.241 31.242 31.241 81.895 0 113.137L432.353 812.337a80 80 0 0 1-49.911 23.154l-127.779 10.673-1.153 0.088c-48.415 3.36-88.674-36.9-85.315-85.314l0.087-1.155 10.673-127.779a80.003 80.003 0 0 1 23.154-49.91l378.666-378.666z m244.194 573.58c17.673 0 32 14.327 32 32 0 17.673-14.327 32-32 32H581.09c-17.673 0-32-14.327-32-32 0-17.673 14.327-32 32-32h243.879zM247.364 627.349a16.002 16.002 0 0 0-4.631 9.982l-10.672 127.778c-0.824 9.863 7.413 18.099 17.276 17.276l127.779-10.671a16.003 16.003 0 0 0 9.982-4.632l272.646-272.646L520.01 354.702 247.364 627.349z m401.293-378.666c-6.248-6.249-16.378-6.249-22.627 0l-60.765 60.764 139.734 139.734 60.765-60.765c6.248-6.248 6.248-16.379 0-22.627L648.657 248.683z" fill="#000000" p-id="30761"></path></svg>