<?xml version="1.0" standalone="no"?><!DOCTYPE svg PUBLIC "-//W3C//DTD SVG 1.1//EN" "http://www.w3.org/Graphics/SVG/1.1/DTD/svg11.dtd"><svg t="1771057436516" class="icon" viewBox="0 0 1024 1024" version="1.1" xmlns="http://www.w3.org/2000/svg" p-id="1641" xmlns:xlink="http://www.w3.org/1999/xlink" width="200" height="200"><path d="M923.264 475.264a36.736 36.736 0 0 0-36.736 36.736v293.76c0 44.544-36.224 80.768-80.832 80.768H218.24a80.896 80.896 0 0 1-80.768-80.832V218.304c0-44.608 36.224-80.832 80.768-80.832H512A36.736 36.736 0 1 0 512 64H218.24A154.432 154.432 0 0 0 64 218.24v587.52C64 890.688 133.184 960 218.24 960h587.52c84.992 0 154.24-69.248 154.24-154.24V512a36.736 36.736 0 0 0-36.736-36.736zM712.576 225.344c44.672 19.392 66.688 41.408 86.08 86.08 5.568 12.8 23.424 12.8 28.992 0 19.392-44.672 41.408-66.688 86.016-86.08 12.8-5.568 12.8-23.424 0-28.992-44.608-19.392-66.624-41.408-86.016-86.016a15.744 15.744 0 0 0-28.992 0c-19.392 44.608-41.408 66.624-86.08 86.016-12.8 5.568-12.8 23.424 0 28.992z" p-id="1642"></path><path d="M496.896 677.952V374.336h-49.408v120.32H308.352v-120.32h-49.024v303.616h49.024V535.36h139.136v142.592h49.408zM756.224 643.584c25.216-22.848 37.888-62.08 37.888-117.44 0-40.576-5.952-71.936-17.728-94.08-11.84-22.144-28.288-37.312-49.472-45.44-21.12-8.192-47.744-12.288-79.808-12.288H553.92v303.616h93.184c47.488 0 83.904-11.52 109.12-34.368zM602.88 635.072V416.32h42.496c21.248 0 39.04 3.072 53.12 9.216 14.08 6.144 25.152 17.216 33.024 33.216 7.872 16.064 11.84 38.528 11.84 67.392 0 40.512-8.192 68.8-24.512 84.864-16.384 16-40.832 24.064-73.472 24.064H602.88z" p-id="1643"></path></svg>